<?xml version="1.0" encoding="iso-8859-1"?>
<!-- Uploaded to: SVG Repo, www.svgrepo.com, Generator: SVG Repo Mixer Tools -->
<svg fill="#000000" height="800px" width="800px" version="1.1" id="Capa_1" xmlns="http://www.w3.org/2000/svg" xmlns:xlink="http://www.w3.org/1999/xlink" 
	 viewBox="0 0 463 463" xml:space="preserve">
<g>
	<path d="M287.5,184c-4.687,0-8.5-3.813-8.5-8.5v-128C279,21.309,257.691,0,231.5,0S184,21.309,184,47.5v128
		c0,4.687-3.813,8.5-8.5,8.5c-4.142,0-7.5,3.358-7.5,7.5s3.358,7.5,7.5,7.5H192v192.5c0,10.337,6.708,19.136,16,22.273V439.5
		c0,12.958,10.542,23.5,23.5,23.5s23.5-10.542,23.5-23.5v-25.727c9.292-3.137,16-11.936,16-22.273V199h16.5
		c4.142,0,7.5-3.358,7.5-7.5S291.642,184,287.5,184z M199,175.5v-128c0-17.92,14.58-32.5,32.5-32.5S264,29.58,264,47.5v128
		c0,2.997,0.57,5.862,1.597,8.5h-68.195C198.43,181.362,199,178.497,199,175.5z M247.5,400c-4.142,0-7.5,3.358-7.5,7.5v32
		c0,4.687-3.813,8.5-8.5,8.5s-8.5-3.813-8.5-8.5v-32c0-4.142-3.358-7.5-7.5-7.5c-4.687,0-8.5-3.813-8.5-8.5V351h49v40.5
		C256,396.187,252.187,400,247.5,400z M256,336h-49V199h49V336z"/>
	<path d="M239.5,167c4.142,0,7.5-3.358,7.5-7.5v-64c0-4.142-3.358-7.5-7.5-7.5s-7.5,3.358-7.5,7.5v64
		C232,163.642,235.358,167,239.5,167z"/>
	<path d="M239.5,71c4.142,0,7.5-3.358,7.5-7.5v-16c0-4.142-3.358-7.5-7.5-7.5s-7.5,3.358-7.5,7.5v16C232,67.642,235.358,71,239.5,71
		z"/>
</g>
</svg>